<?xml version="1.0" encoding="UTF-8" standalone="no"?>
<svg width="50px" height="50px" viewBox="0 0 50 50" version="1.1" xmlns="http://www.w3.org/2000/svg" xmlns:xlink="http://www.w3.org/1999/xlink">
    <!-- Generator: sketchtool 39.1 (31720) - http://www.bohemiancoding.com/sketch -->
    <title>F8CB7ABB-14AB-4C9F-844F-F5A9CD6C9ADF</title>
    <desc>Created with sketchtool.</desc>
    <defs></defs>
    <g id="3.0" stroke="none" stroke-width="1" fill="none" fill-rule="evenodd">
        <g id="iphone-5" transform="translate(-135.000000, -2238.000000)">
            <g id="Group-3" transform="translate(0.000000, 1376.000000)">
                <g id="Group-2" transform="translate(6.000000, 114.000000)">
                    <g id="Group">
                        <g id="energy-section-copy" transform="translate(0.000000, 724.000000)">
                            <g id="energy-icon-copy" transform="translate(129.000000, 24.000000)">
                                <circle id="Combined-Shape" fill="#000000" cx="25" cy="25" r="25"></circle>
                                <path d="M37.9173728,21.6797094 C37.1736557,20.4933556 36.3066357,19.7003639 35.0766074,18.5874298 C33.4691704,17.1342583 32.6990526,16.0407237 30.4658012,16.897286 C30.1663943,17.5795513 30.1663943,18.3874657 30.4658012,19.070328 C31.4909248,19.1240497 32.0324373,18.6975592 32.8919571,18.5874298 C33.2711658,19.4971169 34.3376904,20.2384761 34.0091828,21.8537079 C33.9563816,21.869526 33.9038804,21.8817626 33.8522792,21.8963868 C33.5699727,21.7525321 33.2186646,21.6653836 32.8364558,21.6653836 C32.2910433,21.6653836 31.8080321,21.8393821 31.500225,22.1085875 C30.8438099,22.0868003 30.1147931,21.7904357 29.240573,21.966225 C28.4965559,22.0945601 27.8395407,22.7350419 27.4474317,22.4846392 C27.0085216,22.1566385 26.7835164,22.0933663 26.677614,21.8289363 C26.5432109,21.485416 26.6002122,21.5791304 26.6002122,20.9234275 C26.6002122,20.1578935 27.4705322,19.1318095 27.4783324,18.9243841 C27.4792324,18.921698 27.4792324,18.9181165 27.4792324,18.9154305 C27.5335337,18.7787386 27.5659344,18.592205 27.5659344,18.385675 C27.5659344,18.0499145 27.4783324,17.7663834 27.3595297,17.6666999 C27.2518272,17.032784 27.0754231,16.0374407 26.8258174,15.6330358 C25.8879958,14.8600405 24.6201666,14.8137802 23.4285391,15.3915867 C23.0517305,15.8109143 22.8096249,16.907135 22.6755218,17.6287962 C22.6716217,17.6287962 22.6686216,17.6276024 22.6638215,17.6276024 C22.4964177,17.6276024 22.3614146,17.9669444 22.3614146,18.385675 C22.3614146,18.7459087 22.4616169,19.0470486 22.59662,19.1237512 C22.770624,19.4651823 23.3661377,20.3151787 23.3661377,21.0174404 C23.3661377,21.4230391 23.3973384,21.5791304 23.162433,21.9384688 C22.9803288,22.2151354 22.7247229,22.3986845 22.2831128,22.641029 C21.2750895,21.6149449 20.3126674,21.6883645 18.3758228,22.1811117 C18.0761159,21.8704213 17.5544038,21.6650851 16.9633902,21.6650851 C16.4971795,21.6650851 16.0762698,21.7913311 15.7708628,21.9960704 C15.7336619,21.9754771 15.693161,21.9536899 15.6577602,21.9283214 C15.4561555,20.4405293 16.8169869,19.3320719 17.3614994,18.5871313 C18.0116144,18.8264912 18.6410289,19.0843553 19.5461497,19.0700295 C19.7702549,18.1221403 20.0750619,18.1722806 19.7891553,17.1381382 C17.2231962,15.7392853 16.6801837,17.2351357 15.1780491,18.5868329 C13.9273203,19.7117051 12.7266927,20.6019928 12.0348767,21.839979 C11.9370745,22.0160668 11.8419723,22.3542149 11.7648705,22.5470161 C11.6676683,22.7920466 11.4030622,23.0155885 11.5371653,23.1743659 C11.6628682,23.3206082 13.2310043,24.6920034 14.2897287,25.2405614 C14.6563371,25.5381198 15.1810492,25.7795689 15.7867631,25.8974582 C16.3387758,26.0054984 16.8688881,25.9938588 17.300598,25.8864154 C17.4824022,25.8807448 17.6681065,25.8700004 17.8628109,25.8520932 C17.8931116,26.1296552 17.9558131,26.4197523 18.0572154,26.7098494 C18.2819206,27.354808 18.648529,27.8821758 19.0583385,28.2128626 C19.1006395,28.2991157 19.1459405,28.3859658 19.1897415,28.4713236 C19.2584431,28.7739557 19.3514452,29.0864368 19.472648,29.4010071 C19.7294539,30.0674544 20.0675617,30.6452609 20.4302701,31.0818988 C20.6600754,31.6934306 20.8442796,32.9758865 20.948982,34.1356779 C22.1679101,34.6911003 23.5224413,35 24.9579744,35 C26.4691092,35 27.894142,34.6564797 29.1610712,34.0419634 C29.2717737,32.8099462 29.4298774,31.548382 29.6191817,31.0195219 C29.9626896,30.5915392 30.2803969,30.0367136 30.5252026,29.4010071 C30.6464054,29.0861384 30.7403075,28.7745526 30.8081091,28.4725174 C30.8693105,28.3629849 30.9278119,28.2528554 30.9884132,28.1430244 C31.3652219,27.8102485 31.6979296,27.3118306 31.9082344,26.7098494 C31.9895363,26.4758616 32.0468376,26.2427692 32.0813384,26.0156459 C32.1095391,25.953269 32.1377397,25.8917876 32.1641403,25.8294107 C34.8069012,26.195912 36.971151,24.9089793 38.2014794,23.1200473 C38.2980816,22.9800725 38.3529829,22.9126219 38.4735856,22.6908708 C38.5941884,22.4691196 38.2686809,22.2828845 38.1633785,22.0954555 C38.0826766,21.9518992 38.0007748,21.8131182 37.9173728,21.6797094 L37.9173728,21.6797094 Z" id="Shape" fill="#FFFFFF"></path>
                            </g>
                        </g>
                    </g>
                </g>
            </g>
        </g>
    </g>
</svg>