<?xml version="1.0" encoding="UTF-8" standalone="no"?>
<svg width="50px" height="50px" viewBox="0 0 50 50" version="1.1" xmlns="http://www.w3.org/2000/svg" xmlns:xlink="http://www.w3.org/1999/xlink">
    <!-- Generator: sketchtool 39.1 (31720) - http://www.bohemiancoding.com/sketch -->
    <title>4BCEE5A0-3553-4581-81B5-F3A1882F16A2</title>
    <desc>Created with sketchtool.</desc>
    <defs></defs>
    <g id="3.0" stroke="none" stroke-width="1" fill="none" fill-rule="evenodd">
        <g id="iphone-5" transform="translate(-135.000000, -2962.000000)">
            <g id="Group-3" transform="translate(0.000000, 1376.000000)">
                <g id="Group-2" transform="translate(6.000000, 114.000000)">
                    <g id="Group">
                        <g id="energy-section-copy-2" transform="translate(0.000000, 1448.000000)">
                            <g id="energy-icon-copy" transform="translate(129.000000, 24.000000)">
                                <circle id="Combined-Shape" fill="#000000" cx="25" cy="25" r="25"></circle>
                                <path d="M15.110977,29.7513994 C15.1481613,29.6807555 15.187025,29.6098671 15.2282876,29.5394676 C15.3885402,29.2554251 15.5794999,28.9740716 15.7980479,28.7046957 C16.2332249,28.1625218 16.7888312,27.6870807 17.3914576,27.2925502 C17.9969629,26.900953 18.6535667,26.5958885 19.3144887,26.3367792 C19.9758905,26.0752255 20.6495271,25.8681825 21.3121284,25.6648062 C21.9747296,25.4611854 22.6325329,25.2776089 23.2665862,25.0734992 C23.9025586,24.8747673 24.5171801,24.6628355 25.0994152,24.4296371 C25.6816502,24.197661 26.2305393,23.9429517 26.7348072,23.6699092 C27.2385953,23.3954 27.6992015,23.1047577 28.1079896,22.8092264 C28.5165377,22.5134507 28.8773459,22.2181639 29.1829774,21.9377882 C29.2585456,21.8668998 29.3321946,21.7984558 29.4032047,21.7322118 C29.4718159,21.663279 29.538028,21.5967906 29.6016013,21.5332355 C29.7325862,21.4085697 29.8424599,21.2839039 29.9475357,21.1758602 C30.1502505,20.954884 30.3045056,20.7754631 30.4091016,20.6483529 C30.5141774,20.5227093 30.5703138,20.4559764 30.5703138,20.4559764 C30.5919047,20.4305544 30.6295688,20.4276211 30.6547582,20.4496209 C30.676589,20.468443 30.6816269,20.500465 30.6684325,20.5253982 C30.6684325,20.5253982 30.6264501,20.6021532 30.5480031,20.7466188 C30.4731546,20.8915733 30.346248,21.0993497 30.1814373,21.3628589 C30.013508,21.6227015 29.8023968,21.9365659 29.5277123,22.2719413 C29.2554269,22.6087834 28.9325227,22.9800919 28.5436463,23.3504226 C28.1559694,23.7217311 27.7078379,24.0959728 27.2050094,24.4513925 C26.7048198,24.8119455 26.1453752,25.1412099 25.556183,25.4555632 C24.964352,25.7633166 24.3389351,26.0483368 23.7003237,26.3111127 C23.0607528,26.5716886 22.411346,26.8205313 21.7705755,27.0613074 C21.130045,27.3020834 20.5036684,27.5519039 19.9142364,27.8161465 C19.3243246,28.080389 18.7823925,28.3808091 18.3097913,28.7090957 C18.1742484,28.805895 18.0451826,28.9058721 17.9223543,29.0082936 C17.8515841,29.051071 17.7812937,29.0945818 17.7117229,29.1393149 C17.1090964,29.5338454 16.55397,30.0095309 16.1185531,30.5517048 C15.9000051,30.8208363 15.7090454,31.1021898 15.5487928,31.3862323 C15.3835023,31.6683191 15.2539568,31.9545616 15.1383255,32.2307818 C14.9152193,32.7866445 14.7818354,33.3109742 14.6947521,33.7737042 C14.6076687,34.2371676 14.5685651,34.6392759 14.5402571,34.9692735 C14.5177065,35.2987823 14.5057116,35.5564249 14.504752,35.7312014 C14.5030727,35.8187119 14.5016333,35.8859337 14.5011535,35.9309111 C14.5040323,35.9421555 14.4934767,35.9521777 14.5073909,35.9607331 C14.5325803,35.9692886 14.6479717,35.9766219 14.7863935,35.9824885 C14.8562041,35.9854219 14.9173784,35.9876218 14.9699163,35.9898218 C15.0526815,35.9920218 15.1220123,35.9939774 15.1771891,35.9951996 C15.2880225,35.9978884 15.3436791,35.9993551 15.3436791,35.9993551 C15.379424,36.0000884 15.4242852,36.0003329 15.4605099,35.9993551 L15.4624291,35.9993551 C15.4624291,35.9993551 15.5183256,35.9981329 15.629159,35.9951996 C15.6845757,35.9939774 15.7539065,35.9922663 15.8366717,35.9903107 C15.8892096,35.9883552 15.9506238,35.9859107 16.0204344,35.9837108 C16.1588562,35.9785775 16.2747274,35.9727108 16.3001567,35.9653776 C16.3143108,35.9580443 16.304235,35.9492443 16.3075936,35.9394666 C16.3080734,35.8998669 16.3087931,35.8412007 16.3097527,35.7644457 C16.3095128,35.6106912 16.3183891,35.3877594 16.3354219,35.1061614 C16.3574926,34.8260301 16.3879598,34.4862547 16.4560911,34.1105463 C16.5259018,33.7358156 16.6249801,33.322463 16.7813943,32.9010437 C16.8643994,32.693023 16.9543615,32.4786467 17.0702328,32.2720926 C17.0776696,32.2581594 17.0858262,32.2444706 17.0937429,32.2302929 C33.9125878,37.7322095 35.5,14 35.5,14 C33.4291911,20.5713534 15.9000051,16.1105184 15.110977,29.7513994 L15.110977,29.7513994 Z" id="Shape" fill="#FFFFFF"></path>
                            </g>
                        </g>
                    </g>
                </g>
            </g>
        </g>
    </g>
</svg>