<?xml version="1.0" encoding="UTF-8" standalone="no"?>
<svg width="62px" height="62px" viewBox="0 0 62 62" version="1.1" xmlns="http://www.w3.org/2000/svg" xmlns:xlink="http://www.w3.org/1999/xlink">
    <!-- Generator: Sketch 3.8.3 (29802) - http://www.bohemiancoding.com/sketch -->
    <title>Produce</title>
    <desc>Created with Sketch.</desc>
    <defs></defs>
    <g id="Page-1" stroke="none" stroke-width="1" fill="none" fill-rule="evenodd">
        <g id="explain" transform="translate(-157.000000, -807.000000)">
            <g id="Organic-Produce" transform="translate(95.000000, 807.000000)">
                <g id="Produce" transform="translate(63.000000, 1.000000)">
                    <g id="PRODUCE" transform="translate(7.000000, 6.000000)" fill="#616668">
                        <g id="apple">
                            <path d="M9.5212766,10.4038298 C7.79744681,10.4038298 6.90510638,9.54297872 6.84,9.50978723 C6.55234043,9.22212766 6.55234043,8.77489362 6.84,8.48893617 C7.12765957,8.2012766 7.57489362,8.2012766 7.86085106,8.45744681 C7.92382979,8.52042553 9.13744681,9.57446809 11.6587234,8.45744681 C12.0097872,8.29787234 12.4565957,8.45744681 12.6161702,8.83957447 C12.7757447,9.1906383 12.6161702,9.63744681 12.2340426,9.79702128 C11.18,10.2442553 10.2876596,10.4038298 9.5212766,10.4038298 L9.5212766,10.4038298 Z" id="Fill-1"></path>
                            <path d="M9.71234043,10.4038298 C9.68085106,10.4038298 9.68085106,10.4038298 9.71234043,10.4038298 C9.29702128,10.4038298 8.97787234,10.0531915 9.01106383,9.6693617 L9.07404255,7.08425532 C9.10553191,6.70212766 9.10553191,6.34978723 9.10553191,6.0306383 C9.10553191,5.55191489 9.04255319,4.94510638 8.78638298,4.62595745 C8.69021277,4.52978723 8.62680851,4.52978723 8.59531915,4.52978723 C8.49914894,4.52978723 8.30765957,4.52978723 8.24468085,4.5612766 C7.92553191,4.81702128 7.50978723,4.75234043 7.28723404,4.46468085 C7.03106383,4.17702128 7.09617021,3.69829787 7.41531915,3.44425532 C7.86255319,3.06170213 8.69191489,3.12510638 8.72340426,3.12510638 C9.1706383,3.15659574 9.58425532,3.38085106 9.90340426,3.73191489 C10.4787234,4.40170213 10.573617,5.29574468 10.573617,6.06212766 C10.573617,6.44468085 10.573617,6.82851064 10.5417021,7.2106383 L10.4787234,9.76382979 C10.4157447,10.1161702 10.0965957,10.4038298 9.71234043,10.4038298 L9.71234043,10.4038298 Z" id="Fill-2"></path>
                            <path d="M6.55234043,23.9046809 C6.07361702,23.9046809 5.59489362,23.7765957 5.14808511,23.4574468 C1.73361702,21.0008511 0.00978723404,17.5531915 0.00978723404,13.1817021 C0.00978723404,6.06382979 4.57446809,5.3306383 9.23361702,5.20297872 L9.26510638,5.20297872 C9.64765957,5.20297872 9.96680851,5.52212766 9.96680851,5.90425532 C9.96680851,6.28638298 9.67914894,6.63914894 9.26510638,6.63914894 C4.6693617,6.76680851 1.41446809,7.34042553 1.41446809,13.1817021 C1.41446809,17.1076596 2.88212766,20.106383 5.94595745,22.3089362 C6.42468085,22.6595745 6.96638298,22.4685106 7.89234043,22.1493617 C8.5306383,21.926383 9.23191489,21.6706383 9.96680851,21.6706383 C10.7012766,21.6706383 11.3714894,21.8302128 12.0097872,21.9582979 C13.2544681,22.2455319 14.0208511,22.373617 14.6906383,21.7668085 C17.3404255,19.4051064 18.5204255,16.7570213 18.5204255,13.2131915 C18.5204255,8.77659574 16.6374468,7.69106383 14.5944681,7.1493617 C14.2119149,7.05276596 13.9876596,6.6706383 14.0842553,6.28808511 C14.1804255,5.90595745 14.5944681,5.68170213 14.9451064,5.77787234 C18.4242553,6.67234043 19.9553191,8.9693617 19.9553191,13.2148936 C19.9553191,17.1408511 18.5821277,20.2042553 15.6468085,22.8208511 C14.4017021,23.9378723 12.9655319,23.6187234 11.6889362,23.3625532 C11.113617,23.2348936 10.5085106,23.1068085 9.93361702,23.1068085 C9.42340426,23.1068085 8.91276596,23.2978723 8.33787234,23.4889362 C7.82893617,23.68 7.1906383,23.9046809 6.55234043,23.9046809 L6.55234043,23.9046809 Z" id="Fill-3"></path>
                            <path d="M14.8187234,18.7668085 C14.6906383,18.7668085 14.5310638,18.7348936 14.4365957,18.6387234 C14.1174468,18.4157447 14.0208511,17.9689362 14.2455319,17.6497872 C15.7446809,15.4157447 15.2659574,12.4153191 15.2659574,12.3838298 C15.2029787,12.0012766 15.4570213,11.6174468 15.8412766,11.5540426 C16.2234043,11.4910638 16.607234,11.7455319 16.6706383,12.1293617 C16.7021277,12.2889362 17.2455319,15.7029787 15.4255319,18.4489362 C15.2659574,18.6702128 15.0434043,18.7668085 14.8187234,18.7668085 L14.8187234,18.7668085 Z" id="Fill-4"></path>
                            <path d="M12.2340426,8.16978723 C11.8834043,8.16978723 11.5642553,7.88212766 11.532766,7.53148936 C11.5008511,7.1493617 11.7885106,6.79702128 12.1710638,6.73361702 C13.607234,6.57404255 15.5221277,5.87276596 15.7131915,1.85021277 C14.1804255,2.10595745 10.8944681,3.06340426 10.5102128,6.95659574 C10.4787234,7.3387234 10.1280851,7.65787234 9.71234043,7.59489362 C9.33021277,7.56297872 9.04255319,7.21234043 9.07404255,6.79702128 C9.58425532,1.81829787 14.1174468,0.38212766 16.4144681,0.350638298 C16.6055319,0.350638298 16.7970213,0.414042553 16.9246809,0.541702128 C17.052766,0.669787234 17.1476596,0.860851064 17.1476596,1.05234043 C17.1476596,5.42382979 15.5204255,7.81744681 12.2970213,8.16978723 L12.2340426,8.16978723 L12.2340426,8.16978723 Z" id="Fill-5"></path>
                        </g>
                        <g id="carrot" transform="translate(20.000000, 0.000000)">
                            <path d="M24.3407324,23.8546479 L24.3407324,23.8546479 C23.8110423,23.8546479 23.3438873,23.5984225 23.292169,23.568338 C23.1180845,23.4520563 9.16766197,14.0467606 6.54152113,12.1054648 C5.82557746,11.5761127 5.44292958,10.9014085 5.40709859,10.1026479 C5.3171831,8.13769014 7.4616338,6.12405634 7.72191549,5.88642254 C7.95414085,5.6315493 9.89273239,3.56923944 11.8150986,3.56923944 C12.6561127,3.56923944 13.391662,3.96270423 13.9409577,4.70602817 C15.8832676,7.33115493 25.2875493,21.2825915 25.3825352,21.4225352 C25.6610704,21.9109859 25.931831,22.8459718 25.3058028,23.472 C25.0549859,23.7228169 24.7210141,23.8546479 24.3407324,23.8546479 L24.3407324,23.8546479 Z M11.8150986,4.62557746 C10.5397183,4.62557746 8.98276056,6.05949296 8.49025352,6.61149296 C8.47707042,6.62602817 8.46253521,6.64056338 8.448,6.65374648 C7.87639437,7.16585915 6.40394366,8.77419718 6.46343662,10.0549859 C6.48608451,10.5278873 6.71695775,10.92 7.17126761,11.2553239 C9.77915493,13.1830986 23.7096338,22.5765634 23.8495775,22.6701972 C23.8877746,22.6887887 24.1294648,22.7969577 24.3420845,22.7969577 C24.4715493,22.7969577 24.5269859,22.7574085 24.5611268,22.7232676 C24.7396056,22.5434366 24.5438873,22.08 24.4847324,21.9758873 C24.4120563,21.8727887 15.0212958,7.93960563 13.0931831,5.33307042 C12.7396056,4.85780282 12.3207887,4.62557746 11.8150986,4.62557746 L11.8150986,4.62557746 Z" id="Fill-1"></path>
                            <path d="M7.776,6.46749296 C7.62287324,6.46749296 7.47211268,6.40157746 7.368,6.27447887 C4.74828169,3.08450704 0.725070423,1.58332394 0.683830986,1.56878873 C0.409352113,1.46839437 0.269408451,1.16450704 0.369802817,0.891380282 C0.470197183,0.61656338 0.775098592,0.476619718 1.04721127,0.577014085 C1.18715493,0.628394366 3.83188732,1.61611268 6.31808451,3.72371831 C6.08450704,2.67921127 6.0635493,1.46298592 6.69971831,0.402591549 C6.85047887,0.151774648 7.17397183,0.0713239437 7.42478873,0.221746479 C7.67560563,0.372507042 7.75605634,0.696 7.6056338,0.946816901 C6.47391549,2.83098592 8.20495775,5.6315493 8.22219718,5.66061972 C8.37025352,5.89690141 8.30940845,6.20721127 8.08360563,6.36980282 C7.99132394,6.4343662 7.8828169,6.46749296 7.776,6.46749296 L7.776,6.46749296 Z" id="Fill-2"></path>
                            <path d="M7.43797183,6.80416901 C7.33622535,6.80416901 7.23447887,6.77509859 7.1435493,6.71425352 C4.00225352,4.59785915 1.85915493,6.21904225 1.83819718,6.23628169 C1.60833803,6.41577465 1.27673239,6.37487324 1.09588732,6.14535211 C0.916394366,5.91549296 0.957295775,5.58287324 1.18715493,5.40304225 C1.29802817,5.31616901 3.96405634,3.29712676 7.73374648,5.83774648 C7.97543662,6.00135211 8.04,6.32890141 7.87639437,6.57059155 C7.77464789,6.7223662 7.60698592,6.80416901 7.43797183,6.80416901 L7.43797183,6.80416901 Z" id="Fill-3"></path>
                            <path d="M11.0626479,10.7428732 C10.9727324,10.7428732 10.8804507,10.7192113 10.7959437,10.6701972 C10.5447887,10.5224789 10.4589296,10.200338 10.6056338,9.94952113 C10.6610704,9.85419718 11.9895211,7.61239437 14.2607324,6.79098592 C14.5352113,6.69194366 14.8377465,6.83323944 14.9367887,7.10771831 C15.035493,7.38253521 14.8941972,7.68473239 14.6197183,7.78377465 C12.7156056,8.47301408 11.5298028,10.4616338 11.5179718,10.4815775 C11.4202817,10.6492394 11.243493,10.7428732 11.0626479,10.7428732 L11.0626479,10.7428732 Z" id="Fill-4"></path>
                            <path d="M13.8023662,12.9890704 C13.7110986,12.9890704 13.620169,12.9650704 13.535662,12.9163944 C13.283493,12.768338 13.1989859,12.4461972 13.3467042,12.1953803 C13.3943662,12.1135775 14.5284507,10.1989859 16.4734648,9.49656338 C16.7482817,9.39752113 17.0504789,9.5388169 17.1495211,9.81329577 C17.2485634,10.0881127 17.1072676,10.3903099 16.8327887,10.4893521 C15.2548732,11.0599437 14.268507,12.7115493 14.2593803,12.7287887 C14.160338,12.8950986 13.9832113,12.9890704 13.8023662,12.9890704 L13.8023662,12.9890704 Z" id="Fill-5"></path>
                            <path d="M16.8273803,15.5202254 C16.7482817,15.5202254 16.6664789,15.5016338 16.5897465,15.4647887 C16.3308169,15.3326197 16.2253521,15.0172394 16.3548169,14.7569577 C16.3903099,14.6856338 17.2448451,13.0140845 18.9904225,12.5678873 C19.2730141,12.4952113 19.5606761,12.6655775 19.6333521,12.948169 C19.7060282,13.2307606 19.535662,13.5184225 19.2530704,13.5910986 C17.9814085,13.9159437 17.3053521,15.2180282 17.2989296,15.2312113 C17.2063099,15.4147606 17.0203944,15.5202254 16.8273803,15.5202254 L16.8273803,15.5202254 Z" id="Fill-6"></path>
                        </g>
                        <g id="blueberries" transform="translate(12.000000, 25.000000)">
                            <path d="M9.38964706,4.83105882 C4.21882353,4.83105882 0.0145882353,9.03482353 0.0145882353,14.2061176 C0.0145882353,19.3769412 4.21882353,23.5807059 9.38964706,23.5807059 C14.5604706,23.5807059 18.7647059,19.3769412 18.7647059,14.2061176 C18.7647059,9.03482353 14.5604706,4.83105882 9.38964706,4.83105882 L9.38964706,4.83105882 Z M9.38964706,5.93364706 C13.9651765,5.93364706 17.6616471,9.63058824 17.6616471,14.2061176 C17.6616471,18.7811765 13.9651765,22.4781176 9.38964706,22.4781176 C4.81411765,22.4781176 1.11764706,18.7811765 1.11764706,14.2061176 C1.11764706,9.63058824 4.81411765,5.93364706 9.38964706,5.93364706 L9.38964706,5.93364706 Z" id="Fill-1"></path>
                            <path d="M6.60282353,9.24470588 L6.60282353,9.24470588 C6.19858824,9.26635294 5.95388235,9.704 6.15058824,10.0607059 C6.15058824,10.0607059 6.37317647,10.4668235 6.59011765,10.9835294 C6.80705882,11.5002353 6.98352941,12.1487059 6.96517647,12.4023529 C6.95576471,12.52 6.78117647,12.9557647 6.58447059,13.2884706 C6.38588235,13.6192941 6.19294118,13.8748235 6.19294118,13.8748235 C5.79952941,14.3858824 6.45411765,15.0423529 6.96705882,14.6489412 C6.96705882,14.6489412 7.22447059,14.4578824 7.55529412,14.2592941 C7.88611765,14.0607059 8.32188235,13.8842353 8.43764706,13.8748235 L8.43952941,13.8748235 C8.69129412,13.8564706 9.34211765,14.0329412 9.85647059,14.2498824 C10.3731765,14.4668235 10.7792941,14.6912941 10.7792941,14.6912941 C11.3016471,14.9816471 11.8494118,14.3491765 11.4851765,13.8748235 C11.4851765,13.8748235 11.2941176,13.6192941 11.0955294,13.2884706 C10.8969412,12.9576471 10.7223529,12.52 10.7152941,12.4023529 C10.6964706,12.1487059 10.8729412,11.4983529 11.0898824,10.9835294 C11.3068235,10.4668235 11.5294118,10.0607059 11.5294118,10.0607059 C11.7976471,9.57552941 11.2649412,9.04235294 10.7792941,9.31058824 C10.7792941,9.31058824 10.3731765,9.53694118 9.85647059,9.752 C9.34023529,9.96894118 8.69129412,10.1454118 8.43764706,10.1270588 C8.32,10.1157647 7.88611765,9.94117647 7.55529412,9.74258824 C7.22447059,9.544 6.96705882,9.35294118 6.96705882,9.35294118 C6.864,9.27388235 6.73505882,9.23529412 6.60470588,9.24282353 L6.60282353,9.24470588 Z M10.0037647,10.8362353 C9.79764706,11.3510588 9.56988235,11.9044706 9.61223529,12.48 C9.63058824,12.7350588 9.77552941,12.9134118 9.86776471,13.1322353 C9.38588235,12.9468235 8.888,12.7369412 8.35858824,12.7741176 C8.16894118,12.7868235 8.04423529,12.9025882 7.87670588,12.9614118 C7.93552941,12.7924706 8.05317647,12.6691765 8.06635294,12.48 C8.10305882,11.9505882 7.89176471,11.4522353 7.70588235,10.9722353 C7.92470588,11.0644706 8.10305882,11.2075294 8.35858824,11.2258824 C8.93552941,11.2663529 9.48894118,11.0423529 10.0037647,10.8362353 L10.0037647,10.8362353 Z" id="Fill-2"></path>
                            <path d="M18.184,3.17835294 L18.184,3.17835294 C17.7792941,3.20047059 17.5369412,3.63952941 17.7317647,3.99435294 C17.7317647,3.99435294 17.9538824,4.40094118 18.1708235,4.91717647 C18.3877647,5.43388235 18.5642353,6.08282353 18.5458824,6.33647059 C18.5369412,6.45411765 18.3623529,6.88988235 18.1656471,7.22258824 C17.9670588,7.55341176 17.7741176,7.80894118 17.7741176,7.80894118 C17.3807059,8.32 18.0348235,8.976 18.5477647,8.58258824 C18.5477647,8.58258824 18.8051765,8.39152941 19.136,8.19294118 C19.4668235,7.99435294 19.9025882,7.81788235 20.0183529,7.80894118 C20.272,7.79058824 20.9228235,7.96705882 21.4376471,8.184 C21.9538824,8.40094118 22.3604706,8.62494118 22.3604706,8.62494118 C22.8823529,8.91529412 23.4301176,8.28329412 23.0663529,7.80894118 C23.0663529,7.80894118 22.8748235,7.55341176 22.6767059,7.22258824 C22.4781176,6.89176471 22.3035294,6.45411765 22.296,6.33647059 C22.2776471,6.08282353 22.4541176,5.432 22.6710588,4.91717647 C22.888,4.40094118 23.1101176,3.99435294 23.1101176,3.99435294 C23.3788235,3.50917647 22.8456471,2.976 22.3604706,3.24470588 C22.3604706,3.24470588 21.9538824,3.47058824 21.4376471,3.68564706 C20.9209412,3.90258824 20.272,4.07905882 20.0183529,4.06070588 C19.9007059,4.04941176 19.4668235,3.87670588 19.136,3.68 C18.8051765,3.48141176 18.5477647,3.28847059 18.5477647,3.28847059 C18.4447059,3.20941176 18.3162353,3.17082353 18.1858824,3.17835294 L18.184,3.17835294 Z M21.5844706,4.77035294 C21.3788235,5.28470588 21.1505882,5.83811765 21.1929412,6.41364706 C21.2112941,6.66917647 21.3548235,6.84752941 21.4465882,7.06447059 C20.9651765,6.87858824 20.4668235,6.66917647 19.9392941,6.70588235 C19.7501176,6.71858824 19.6268235,6.83435294 19.4597647,6.89317647 C19.5167059,6.72611765 19.6343529,6.60094118 19.6470588,6.41364706 C19.6837647,5.88423529 19.4724706,5.38588235 19.2865882,4.90635294 C19.5054118,4.99811765 19.6837647,5.14164706 19.9392941,5.16 C20.5167059,5.20047059 21.0696471,4.976 21.5844706,4.77035294 L21.5844706,4.77035294 Z" id="Fill-3"></path>
                            <path d="M19.9449412,0.419294118 C16.4376471,0.419294118 13.2296471,2.42117647 11.6527059,5.57882353 C11.5016471,5.88047059 11.6545882,6.24470588 11.9741176,6.35105882 C15.3510588,7.456 17.6395294,10.6268235 17.6414118,14.2131765 C17.6376471,15.5072941 17.3327059,16.7792941 16.752,17.9336471 C16.5990588,18.2352941 16.7501176,18.6009412 17.0696471,18.7077647 C17.9962353,19.0145882 18.9670588,19.1689412 19.9430588,19.1708235 C25.0734118,19.1708235 29.2409412,14.9651765 29.2409412,9.79576471 C29.2409412,4.62682353 25.0734118,0.421176471 19.9430588,0.421176471 L19.9449412,0.419294118 Z M19.9449412,1.52188235 L19.9468235,1.52188235 C24.4743529,1.52188235 28.1397647,5.21694118 28.1397647,9.79388235 C28.1397647,14.3712941 24.4762353,18.0644706 19.9468235,18.0663529 C19.2517647,18.0663529 18.5736471,17.9115294 17.9025882,17.7355294 C18.3656471,16.6084706 18.7407059,15.4376471 18.7444706,14.2131765 C18.7407059,10.4009412 16.4023529,7.06258824 12.9449412,5.62682353 C14.4098824,3.12141176 17.0367059,1.52941176 19.9430588,1.52564706 L19.9449412,1.52188235 Z" id="Fill-4"></path>
                            <path d="M15.4211765,14.7590588 L15.4211765,14.7590588 C15.16,14.7755294 14.9449412,14.9722353 14.9082353,15.2315294 C14.7647059,16.1487059 14.4211765,17.0108235 13.9063529,17.7425882 C13.7317647,17.9924706 13.7905882,18.3364706 14.0404706,18.5110588 C14.2884706,18.6875294 14.6343529,18.6268235 14.8089412,18.3788235 C15.4225882,17.5035294 15.8291765,16.4832941 15.9981176,15.4042353 C16.0588235,15.0531765 15.7755294,14.7388235 15.4211765,14.7609412 L15.4211765,14.7590588 Z" id="Fill-5"></path>
                            <path d="M13.8014118,19.1689412 L13.8014118,19.1689412 C13.8014118,19.4743529 13.5552941,19.7204706 13.2498824,19.7204706 C12.9449412,19.7204706 12.6983529,19.4743529 12.6983529,19.1689412 C12.6983529,18.864 12.9449412,18.6174118 13.2498824,18.6174118 C13.5552941,18.6174118 13.8014118,18.864 13.8014118,19.1689412 L13.8014118,19.1689412 Z" id="Fill-6"></path>
                            <path d="M26.4503529,10.3472941 L26.4503529,10.3472941 C26.1891765,10.3637647 25.9741176,10.5604706 25.9374118,10.8197647 C25.7938824,11.7369412 25.4503529,12.5990588 24.9355294,13.3308235 C24.7609412,13.5807059 24.8197647,13.9247059 25.0696471,14.0992941 C25.3181176,14.2757647 25.6635294,14.2150588 25.8381176,13.9670588 C26.4522353,13.0917647 26.8583529,12.0715294 27.0277647,10.9924706 C27.088,10.6414118 26.8051765,10.3270588 26.4503529,10.3491765 L26.4503529,10.3472941 Z" id="Fill-7"></path>
                            <path d="M24.8310588,14.7571765 L24.8310588,14.7571765 C24.8310588,15.0625882 24.5844706,15.3087059 24.2795294,15.3087059 C23.9741176,15.3087059 23.728,15.0625882 23.728,14.7571765 C23.728,14.4522353 23.9741176,14.2061176 24.2795294,14.2061176 C24.5844706,14.2061176 24.8310588,14.4522353 24.8310588,14.7571765 L24.8310588,14.7571765 Z" id="Fill-8"></path>
                        </g>
                    </g>
                    <circle id="Oval-7" stroke="#616668" stroke-width="2" cx="30" cy="30" r="30"></circle>
                </g>
            </g>
        </g>
    </g>
</svg>