<?xml version="1.0" encoding="UTF-8" standalone="no"?>
<svg width="50px" height="60px" viewBox="0 0 50 60" version="1.1" xmlns="http://www.w3.org/2000/svg" xmlns:xlink="http://www.w3.org/1999/xlink">
    <!-- Generator: Sketch 3.8.3 (29802) - http://www.bohemiancoding.com/sketch -->
    <title>protein icon</title>
    <desc>Created with Sketch.</desc>
    <defs></defs>
    <g id="Page-1" stroke="none" stroke-width="1" fill="none" fill-rule="evenodd">
        <g id="explain" transform="translate(-163.000000, -452.000000)" fill="#616668">
            <g id="Protein" transform="translate(95.000000, 452.000000)">
                <g id="protein-icon" transform="translate(68.000000, 0.000000)">
                    <path d="M39.7128814,10.32 C39.2562712,10.1694915 39.0254237,9.70881356 39.0254237,9.32745763 L39.0254237,7.8020339 C39.8633898,7.72677966 40.5508475,7.03932203 40.5508475,6.20135593 L40.5508475,2.76915254 C40.5508475,1.47355932 39.4820339,0.404745763 38.1874576,0.404745763 L11.6430508,0.404745763 C10.3484746,0.404745763 9.27966102,1.47355932 9.27966102,2.76915254 L9.27966102,6.20135593 C9.27966102,7.03932203 9.96711864,7.72677966 10.8050847,7.8020339 L10.8050847,9.32745763 C10.8050847,9.7840678 10.4989831,10.1654237 10.1176271,10.32 C4.54881356,12.5328814 0.889830508,17.8718644 0.889830508,23.8983051 L0.889830508,51.4311864 C0.889830508,55.9322034 4.55288136,59.6705085 9.12915254,59.6705085 L40.7816949,59.6705085 C45.2816949,59.6705085 49.02,56.0074576 49.02,51.4311864 L49.02,23.8983051 C48.940678,17.8718644 45.3579661,12.5328814 39.7128814,10.32 L39.7128814,10.32 Z M10.8050847,2.69288136 C10.8050847,2.23627119 11.1864407,1.85491525 11.6430508,1.85491525 L38.1874576,1.85491525 C38.6440678,1.85491525 39.0254237,2.23627119 39.0254237,2.69288136 L39.0254237,6.12508475 C39.0254237,6.20135593 38.9501695,6.20135593 38.9501695,6.20135593 L10.9555932,6.20135593 C10.880339,6.20135593 10.880339,6.12508475 10.880339,6.12508475 L10.880339,2.69288136 L10.8050847,2.69288136 Z M10.6545763,11.7701695 C11.6471186,11.3888136 12.3305085,10.3962712 12.3305085,9.33152542 L12.3305085,7.80610169 L37.5,7.80610169 L37.5,9.33152542 C37.5,10.400339 38.1874576,11.3888136 39.1759322,11.7701695 C41.6949153,12.7637288 43.7522034,14.5149153 45.2023729,16.6525424 L4.62813559,16.6525424 C6.07830508,14.439661 8.13559322,12.7637288 10.6545763,11.7701695 L10.6545763,11.7701695 Z M3.79016949,18.1027119 L3.94067797,18.1027119 L46.120678,18.1027119 C46.9586441,19.8579661 47.4152542,21.8410169 47.4152542,23.8230508 L47.4152542,50.9745763 L2.41525424,50.9745763 L2.41525424,23.8983051 C2.41525424,21.8410169 2.87186441,19.8538983 3.79016949,18.1027119 L3.79016949,18.1027119 Z M40.7013559,58.1450847 L9.12915254,58.1450847 C5.84745763,58.1450847 3.10271186,55.7816949 2.56983051,52.6545763 L47.34,52.6545763 C46.7277966,55.7013559 43.9830508,58.1450847 40.7013559,58.1450847 L40.7013559,58.1450847 Z" id="Fill-1"></path>
                    <path d="M15.6122034,35.1081356 C16.4501695,34.1949153 17.2881356,33.6589831 18.1301695,33.7342373 C19.5050847,33.7342373 20.5698305,35.0288136 20.5698305,35.0288136 C20.720339,35.180339 20.8749153,35.259661 21.1016949,35.3349153 C21.3325424,35.3349153 21.4830508,35.259661 21.6335593,35.1844068 C23.7711864,33.3528814 26.3613559,35.3349153 26.440678,35.4142373 C26.7467797,35.6450847 27.1281356,35.6450847 27.4342373,35.4142373 C27.739322,35.1844068 27.739322,34.7267797 27.5094915,34.4216949 C26.9766102,33.6589831 27.2033898,32.7447458 27.3579661,31.8274576 C27.4342373,31.5966102 27.4342373,31.2945763 27.5094915,31.14 C27.66,30.1474576 27.0528814,29.0033898 26.6715254,28.240678 C26.5952542,28.0891525 26.52,27.9345763 26.440678,27.859322 C26.2098305,27.3264407 25.7532203,27.020339 25.2213559,26.9450847 C24.6884746,26.8698305 24.0772881,27.020339 23.6959322,27.4779661 C23.4650847,27.7077966 22.5518644,27.9345763 22.0952542,27.7077966 C21.7891525,27.5572881 21.4830508,27.4779661 21.1810169,27.4016949 C20.9511864,27.3264407 20.5698305,27.2511864 20.4183051,27.0966102 C20.3430508,26.9450847 20.4183051,26.5637288 20.4183051,26.4844068 C20.6491525,26.2535593 20.9511864,25.8722034 20.9511864,25.1898305 C20.9511864,24.9589831 21.0264407,24.7322034 21.1810169,24.5776271 C21.3325424,24.4271186 21.5623729,24.2715254 21.7138983,24.1210169 C22.1705085,23.6644068 22.8579661,23.5881356 23.3898305,23.739661 C24.5338983,24.1210169 25.6779661,24.9589831 26.3654237,25.5711864 C26.7467797,25.8762712 27.1281356,26.3338983 27.3579661,26.7905085 C27.739322,27.5532203 28.120678,28.0850847 28.3515254,28.3911864 C28.4267797,28.4664407 28.5813559,28.6220339 28.8081356,28.8477966 C29.9522034,29.9918644 33.0030508,32.8922034 33.3844068,37.3128814 C33.3844068,37.5437288 33.5359322,37.7705085 33.6905085,37.9250847 C33.8410169,38.000339 33.8410169,38.1559322 33.6905085,38.4569492 C33.5389831,38.8383051 33.0783051,38.8383051 33.0783051,38.8383051 C32.9277966,38.8383051 32.6969492,38.9145763 32.5464407,38.9898305 C32.5464407,38.9898305 29.5708475,41.5077966 25.4511864,41.5077966 C23.7752542,41.5077966 22.7816949,41.2027119 22.0189831,40.8966102 C21.4871186,40.7450847 21.0264407,40.5905085 20.5698305,40.5905085 C20.799661,40.360678 20.9511864,40.2844068 21.0264407,40.2844068 C21.4077966,40.1338983 21.5583051,39.6732203 21.4077966,39.2918644 C21.2562712,38.9105085 20.7955932,38.679661 20.4142373,38.8352542 C20.3389831,38.9105085 19.4216949,39.2918644 18.8135593,40.5111864 C18.6630508,40.8925424 18.5074576,41.2738983 18.4322034,41.58 C18.3569492,41.8861017 18.2816949,42.1911864 18.1261017,42.4179661 C16.8315254,44.0186441 16.0688136,44.0186441 15.6874576,44.0186441 L15.3813559,44.0186441 C15,44.0938983 14.6938983,44.4752542 14.7691525,44.8566102 C14.8454237,45.2379661 15.1505085,45.5440678 15.5318644,45.5440678 L15.6081356,45.5440678 L15.7586441,45.5440678 C16.2915254,45.5440678 17.2088136,45.4688136 18.5033898,44.3247458 C18.9610169,44.0186441 19.2661017,43.6372881 19.4969492,43.2559322 C19.5722034,43.180678 19.6474576,43.1054237 19.7267797,43.0261017 C20.5657627,41.9572881 20.6410169,41.9572881 21.6335593,42.3386441 C22.3962712,42.5684746 23.6166102,43.0261017 25.5233898,43.0261017 C29.6420339,43.0261017 32.6176271,40.8884746 33.380339,40.280339 C33.9925424,40.2050847 34.6759322,39.8237288 35.0572881,39.0610169 C35.5138983,38.1477966 35.2077966,37.3057627 34.8264407,36.9244068 C34.2945763,32.1172881 30.9376271,28.839661 29.7935593,27.7718644 C29.6420339,27.620339 29.5627119,27.5410169 29.4874576,27.4657627 C29.3369492,27.2349153 29.0308475,26.7783051 28.6494915,26.1701695 C28.2681356,25.5589831 27.8115254,24.9508475 27.2745763,24.4942373 C26.4366102,23.8067797 25.1379661,22.8935593 23.8423729,22.4359322 C22.7745763,22.0555932 21.5542373,22.2854237 20.6410169,23.0481356 C20.4101695,23.1986441 20.259661,23.4294915 20.0288136,23.5810169 C19.5722034,24.0376271 19.2661017,24.6488136 19.2661017,25.3362712 L19.2661017,25.4867797 C18.579661,26.0989831 18.579661,27.3945763 18.9610169,28.0057627 C19.2661017,28.5376271 19.9535593,28.7684746 20.6369492,28.92 C20.8677966,28.9952542 21.1688136,29.0705085 21.399661,29.1498305 C22.4684746,29.6064407 24.1444068,29.2250847 24.6813559,28.5376271 C24.6813559,28.5376271 24.7566102,28.4623729 24.8318644,28.5376271 C24.9071186,28.5376271 24.9071186,28.6138983 24.9071186,28.6138983 C24.9823729,28.7644068 25.0586441,28.92 25.1379661,29.0705085 C25.4440678,29.6023729 25.900678,30.520678 25.8254237,31.0525424 C25.8254237,31.2040678 25.7491525,31.4338983 25.7491525,31.6647458 C25.6738983,32.1213559 25.519322,32.8088136 25.519322,33.42 C24.2237288,32.9633898 22.6189831,32.7335593 21.0935593,33.7261017 C20.4823729,33.1942373 19.4176271,32.4315254 18.0427119,32.3511864 C16.7481356,32.3511864 15.4484746,32.9633898 14.3044068,34.2589831 C13.999322,34.5640678 14.0745763,35.0216949 14.380678,35.3267797 C14.8494915,35.4894915 15.3813559,35.4894915 15.6122034,35.1081356 L15.6122034,35.1081356 Z" id="Fill-2"></path>
                </g>
            </g>
        </g>
    </g>
</svg>