<?xml version="1.0" encoding="UTF-8" standalone="no"?>
<svg width="205px" height="128px" viewBox="0 0 205 128" version="1.1" xmlns="http://www.w3.org/2000/svg" xmlns:xlink="http://www.w3.org/1999/xlink">
    <!-- Generator: sketchtool 39.1 (31720) - http://www.bohemiancoding.com/sketch -->
    <title>7EA2A24D-01B7-4CD0-B5B5-C1B72BE8D139</title>
    <desc>Created with sketchtool.</desc>
    <defs></defs>
    <g id="3.0" stroke="none" stroke-width="1" fill="none" fill-rule="evenodd">
        <g id="iphone-5" transform="translate(-59.000000, -180.000000)">
            <g id="top-section" transform="translate(0.000000, 64.000000)">
                <g id="logo" transform="translate(57.000000, 100.000000)">
                    <g id="spark-icon" transform="translate(78.000000, 94.000000)">
                        <path d="M25,0 C11.2105263,0 0,11.2105263 0,25 C0,38.7894737 11.2105263,50 25,50 C38.7894737,50 50,38.7894737 50,25 C50,11.2105263 38.7894737,0 25,0 L25,0 Z M25,46 C13.4210526,46 4,36.5789474 4,25 C4,13.4210526 13.4210526,4 25,4 C36.5789474,4 46,13.4210526 46,25 C46,36.5789474 36.5789474,46 25,46 L25,46 Z" id="Shape" fill="#FFFFFF"></path>
                        <polygon id="Shape" fill="#F8E71C" points="28.3185185 11.6666667 13.3333333 27.6666667 25.2074074 27.6666667 21.6814815 38.3333333 36.6666667 22.3333333 24.7925926 22.3333333"></polygon>
                    </g>
                    <g id="spark-text">
                        <polygon id="Rectangle-2" fill="#F8E71C" points="206 66 202.697499 71 2 71 5.30250089 66"></polygon>
                        <text id="SPARK" font-family="Avenir-HeavyOblique, Avenir" font-size="60" font-style="italic" font-weight="600" letter-spacing="3" fill="#FFFFFF">
                            <tspan x="0.429186451" y="60">SPARK</tspan>
                        </text>
                    </g>
                </g>
            </g>
        </g>
    </g>
</svg>