<?xml version="1.0" encoding="UTF-8" standalone="no"?>
<svg width="205px" height="171px" viewBox="0 0 205 171" version="1.1" xmlns="http://www.w3.org/2000/svg" xmlns:xlink="http://www.w3.org/1999/xlink">
    <!-- Generator: sketchtool 39.1 (31720) - http://www.bohemiancoding.com/sketch -->
    <title>64CFBFBC-992D-4A35-A93E-797723DB125C</title>
    <desc>Created with sketchtool.</desc>
    <defs></defs>
    <g id="3.0" stroke="none" stroke-width="1" fill="none" fill-rule="evenodd">
        <g id="iphone-5-copy-14" transform="translate(-59.000000, -119.000000)" fill="#000000">
            <g id="top-section" transform="translate(0.000000, 64.000000)">
                <g id="logo" transform="translate(57.000000, 39.000000)">
                    <g id="Group-12" transform="translate(55.000000, 174.000000)" font-size="12">
                        <text id="BLENDFIT" font-family="Avenir-Black, Avenir" font-weight="700" letter-spacing="1.71428573">
                            <tspan x="24" y="12">BLENDFI</tspan>
                            <tspan x="87.3360001" y="12" letter-spacing="1.46938777">T</tspan>
                        </text>
                        <text id="BY:" font-family="Avenir-Medium, Avenir" font-weight="400" letter-spacing="0.857142866">
                            <tspan x="0" y="12">BY</tspan>
                            <tspan x="15.5142857" y="12" letter-spacing="0.734693885">:</tspan>
                        </text>
                    </g>
                    <g id="Group-14">
                        <g id="spark-icon" transform="translate(73.000000, 89.000000)">
                            <path d="M30,0 C13.4526316,0 0,13.4526316 0,30 C0,46.5473684 13.4526316,60 30,60 C46.5473684,60 60,46.5473684 60,30 C60,13.4526316 46.5473684,0 30,0 L30,0 Z M30,55.2 C16.1052632,55.2 4.8,43.8947368 4.8,30 C4.8,16.1052632 16.1052632,4.8 30,4.8 C43.8947368,4.8 55.2,16.1052632 55.2,30 C55.2,43.8947368 43.8947368,55.2 30,55.2 L30,55.2 Z" id="Shape"></path>
                            <polygon id="Shape" points="33.9822222 14 16 33.2 30.2488889 33.2 26.0177778 46 44 26.8 29.7511111 26.8"></polygon>
                        </g>
                        <g id="spark-text">
                            <polygon id="Rectangle-2" points="206 66 202.697499 71 2 71 5.30250089 66"></polygon>
                            <text id="SPARK" font-family="Avenir-HeavyOblique, Avenir" font-size="60" font-style="italic" font-weight="600" letter-spacing="3">
                                <tspan x="0.429186451" y="60">SPARK</tspan>
                            </text>
                        </g>
                    </g>
                </g>
            </g>
        </g>
    </g>
</svg>