<?xml version="1.0" encoding="UTF-8" standalone="no"?>
<svg width="74px" height="60px" viewBox="0 0 74 60" version="1.1" xmlns="http://www.w3.org/2000/svg" xmlns:xlink="http://www.w3.org/1999/xlink">
    <!-- Generator: Sketch 3.8.3 (29802) - http://www.bohemiancoding.com/sketch -->
    <title>speed</title>
    <desc>Created with Sketch.</desc>
    <defs></defs>
    <g id="Page-1" stroke="none" stroke-width="1" fill="none" fill-rule="evenodd">
        <g id="explain" transform="translate(-151.000000, -1137.000000)" fill="#616668">
            <g id="Fast-Delivery" transform="translate(95.000000, 1137.000000)">
                <g id="speed" transform="translate(56.000000, 0.000000)">
                    <path d="M48.3722034,5.79559322 L46.5335593,5.79559322 C46.4338983,5.79559322 46.3505085,5.87084746 46.3505085,5.96644068 L46.3505085,7.97288136 L46.3505085,8.68779661 C46.3505085,9.69661017 47.1772881,10.2050847 48.1861017,10.2050847 L48.5552542,10.2050847 C49.5640678,10.2050847 50.3908475,9.70067797 50.3908475,8.68779661 L50.3908475,7.97288136 L50.3908475,5.96644068 C50.3908475,5.87491525 50.3074576,5.79559322 50.2077966,5.79559322 L48.3722034,5.79559322 L48.3722034,5.79559322 Z" id="Fill-1"></path>
                    <path d="M44.1498305,5.05728814 L52.9688136,5.05728814 C53.779322,5.05728814 54.4383051,4.39728814 54.4383051,3.58677966 L54.4383051,2.11728814 C54.4383051,1.30677966 53.7752542,0.64779661 52.9688136,0.64779661 L44.1498305,0.64779661 C43.339322,0.64779661 42.680339,1.30677966 42.680339,2.11728814 L42.680339,3.58677966 C42.6762712,4.39728814 43.339322,5.05728814 44.1498305,5.05728814 L44.1498305,5.05728814 Z" id="Fill-2"></path>
                    <path d="M51.6718927,8.95423729 C51.6718927,9.78813559 50.7657365,11.3054237 48.3737282,11.3054237 C45.986805,11.3054237 45.0765808,9.65288136 45.0765808,8.95423729 C32.6304086,10.5711864 23.0166102,21.2054237 23.0166102,34.0881356 C23.0166102,48.0905085 34.3705133,59.439661 48.3696602,59.439661 C62.3779602,59.4437288 73.7318633,48.0905085 73.7318633,34.0881356 C73.7318633,21.2054237 64.1180649,10.5711864 51.6718927,8.95423729 L51.6718927,8.95423729 Z M48.3737282,54.3 C37.2110231,54.3 28.1647164,45.2501695 28.1647164,34.0911864 C28.1647164,22.9291525 37.2150911,13.879322 48.3737282,13.879322 C59.5374504,13.879322 68.5837571,22.9291525 68.5837571,34.0911864 C68.5868082,45.2501695 59.5374504,54.3 48.3737282,54.3 L48.3737282,54.3 Z" id="Fill-3"></path>
                    <path d="M49.1086921,31.9423729 L49.1086921,17.919661 L48.007918,17.919661 L48.007918,31.9423729 C46.8511896,32.1966102 45.9854237,33.2257627 45.9854237,34.4532203 C45.9854237,35.8749153 47.1380827,37.0271186 48.5562704,37.0271186 C49.9795448,37.0271186 51.1311864,35.8749153 51.1311864,34.4532203 C51.1311864,33.2257627 50.2654205,32.1966102 49.1086921,31.9423729 L49.1086921,31.9423729 Z" id="Fill-4"></path>
                    <path d="M50.6766102,30.5130072 C50.6766102,30.5130072 51.2281819,30.7111504 51.594194,31.1440171 C51.9602061,31.5809482 52.1993908,32.3267795 52.1993908,32.3267795 L55.8935594,27.9208877 L54.3741836,26.1030508 L50.6766102,30.5130072 Z" id="Fill-5"></path>
                    <path d="M0.393559322,32.7901401 C0.393559322,33.5208814 1.21932203,34.1227117 2.23220339,34.1227117 L17.959322,34.1227117 C18.9681356,34.1227117 19.7989831,33.523828 19.7989831,32.7901401 C19.7989831,32.0593988 18.9722034,31.4583051 17.959322,31.4583051 L2.23220339,31.4583051 C1.21932203,31.4583051 0.393559322,32.0564522 0.393559322,32.7901401 L0.393559322,32.7901401 Z" id="Fill-6"></path>
                    <path d="M11.4172881,14.4016655 C11.4172881,15.1324069 12.2430508,15.7342372 13.2559322,15.7342372 L24.6213559,15.7342372 C25.6301695,15.7342372 26.4610169,15.1353534 26.4610169,14.4016655 C26.4610169,13.6709242 25.6342373,13.0698305 24.6213559,13.0698305 L13.2559322,13.0698305 C12.2430508,13.0698305 11.4172881,13.6679776 11.4172881,14.4016655 L11.4172881,14.4016655 Z" id="Fill-7"></path>
                    <path d="M11.4172881,51.1439453 C11.4172881,51.8754365 12.2430508,52.4725273 13.2559322,52.4725273 L24.6213559,52.4725273 C25.6301695,52.4725273 26.4610169,51.8754365 26.4610169,51.1439453 C26.4610169,50.4153917 25.6342373,49.8183009 24.6213559,49.8183009 L13.2559322,49.8183009 C12.2430508,49.8153632 11.4172881,50.412454 11.4172881,51.1439453 L11.4172881,51.1439453 Z" id="Fill-8"></path>
                    <path d="M4.43694915,42.1414409 C4.43694915,42.8709337 5.26372881,43.4674575 6.27254237,43.4674575 L19.6474576,43.4674575 C20.6562712,43.4674575 21.4830508,42.8709337 21.4830508,42.1414409 C21.4830508,41.4126827 20.6562712,40.8132203 19.6474576,40.8132203 L6.27254237,40.8132203 C5.26372881,40.8132203 4.43694915,41.4097442 4.43694915,42.1414409 L4.43694915,42.1414409 Z" id="Fill-9"></path>
                    <path d="M4.43694915,23.4742372 C4.43694915,24.2047766 5.26372881,24.8064406 6.27254237,24.8064406 L19.6474576,24.8064406 C20.6562712,24.8064406 21.4830508,24.2077223 21.4830508,23.4742372 C21.4830508,22.7436979 20.6562712,22.1420339 19.6474576,22.1420339 L6.27254237,22.1420339 C5.26372881,22.1449796 4.43694915,22.7436979 4.43694915,23.4742372 L4.43694915,23.4742372 Z" id="Fill-10"></path>
                </g>
            </g>
        </g>
    </g>
</svg>