<?xml version="1.0" encoding="UTF-8" standalone="no"?>
<svg width="30px" height="30px" viewBox="0 0 30 30" version="1.1" xmlns="http://www.w3.org/2000/svg" xmlns:xlink="http://www.w3.org/1999/xlink">
    <!-- Generator: Sketch 3.8.2 (29753) - http://www.bohemiancoding.com/sketch -->
    <title>Page 1</title>
    <desc>Created with Sketch.</desc>
    <defs></defs>
    <g id="Page-1" stroke="none" stroke-width="1" fill="none" fill-rule="evenodd">
        <g id="iPhone-6" transform="translate(-173.000000, -1070.000000)" fill="#616668">
            <g id="Page-1" transform="translate(173.000000, 1070.000000)">
                <path d="M18.6226087,17.6408696 C18.6226087,18.1826087 18.1826087,18.6226087 17.6408696,18.6226087 L12.3591304,18.6226087 C11.8173913,18.6226087 11.3773913,18.1826087 11.3773913,17.6408696 L11.3773913,12.3591304 C11.3773913,11.8173913 11.8173913,11.3773913 12.3591304,11.3773913 L17.6408696,11.3773913 C18.1826087,11.3773913 18.6226087,11.8173913 18.6226087,12.3591304 L18.6226087,17.6408696 Z" id="Fill-1"></path>
                <path d="M29.673913,26.8547826 C29.673913,28.4121739 28.4121739,29.673913 26.8547826,29.673913 L3.14521739,29.673913 C1.58782609,29.673913 0.326086957,28.4121739 0.326086957,26.8547826 L0.326086957,3.14521739 C0.326086957,1.58782609 1.58782609,0.326086957 3.14521739,0.326086957 L26.8530435,0.326086957 C28.4121739,0.326086957 29.673913,1.58782609 29.673913,3.14521739 L29.673913,26.8547826 Z M26.2091304,4.44956522 C26.2091304,4.08608696 25.913913,3.79086957 25.5504348,3.79086957 L4.44956522,3.79086957 C4.08608696,3.79086957 3.79086957,4.08608696 3.79086957,4.44956522 L3.79086957,25.5504348 C3.79086957,25.913913 4.08608696,26.2091304 4.44956522,26.2091304 L25.5504348,26.2091304 C25.913913,26.2091304 26.2091304,25.913913 26.2091304,25.5504348 L26.2091304,4.44956522 Z" id="Fill-2"></path>
            </g>
        </g>
    </g>
</svg>