<?xml version="1.0" encoding="UTF-8" standalone="no"?>
<svg width="18px" height="20px" viewBox="0 0 18 20" version="1.1" xmlns="http://www.w3.org/2000/svg" xmlns:xlink="http://www.w3.org/1999/xlink">
    <!-- Generator: sketchtool 39.1 (31720) - http://www.bohemiancoding.com/sketch -->
    <title>37991187-3A16-4BD2-910C-F30B61C0F4AB</title>
    <desc>Created with sketchtool.</desc>
    <defs></defs>
    <g id="3.0" stroke="none" stroke-width="1" fill="none" fill-rule="evenodd">
        <g id="sticky-header" transform="translate(-76.000000, -86.000000)" fill="#000000">
            <g id="notify-me" transform="translate(0.000000, 44.000000)">
                <g id="todays-menu-button" transform="translate(8.000000, 8.000000)">
                    <g id="Group" transform="translate(68.000000, 34.000000)">
                        <path d="M16.5,9.23076923 C15.672,9.23076923 15,9.92 15,10.7692308 L15,10 C15,9.15076923 14.328,8.46153846 13.5,8.46153846 C12.672,8.46153846 12,9.15076923 12,10 L12,9.23076923 C12,8.38153846 11.328,7.69230769 10.5,7.69230769 C9.672,7.69230769 9,8.38153846 9,9.23076923 L9,4.61538462 C9,3.76615385 8.328,3.07692308 7.5,3.07692308 C6.672,3.07692308 6,3.76615385 6,4.61538462 L6,13.0769231 C6,13.8223077 5.121,14.2069231 4.5,13.4138462 L3,11.7069231 C2.5665,11.2023077 2.238,10.7692308 1.5,10.7692308 C0.66825,10.7692308 0,11.4661538 0,12.3076923 C0,12.7761538 0.16425,13.1253846 0.738,13.8461538 L5.25,19.0746154 C5.766,19.6392308 6.0705,20 6.75,20 L16.5,20 C17.35575,20 18,19.2907692 18,18.4615385 L18,10.7692308 C18,9.92 17.328,9.23076923 16.5,9.23076923 L16.5,9.23076923 Z M4.5,8.04846154 L4.5,4.61538462 C4.5,2.91615385 5.84325,1.53846154 7.5,1.53846154 C9.15675,1.53846154 10.5,2.91615385 10.5,4.61538462 L10.5,6.15384615 C10.90875,6.15384615 11.298,6.23923077 11.6535,6.39230769 C11.87625,5.84538462 12,5.24538462 12,4.61538462 C12,2.06692308 9.98475,0 7.5,0 C5.01525,0 3,2.06692308 3,4.61538462 C3,5.98 3.58125,7.20307692 4.5,8.04846154 L4.5,8.04846154 Z" id="Shape"></path>
                    </g>
                </g>
            </g>
        </g>
    </g>
</svg>