<?xml version="1.0" encoding="UTF-8" standalone="no"?>
<svg width="18px" height="14px" viewBox="0 0 18 14" version="1.1" xmlns="http://www.w3.org/2000/svg" xmlns:xlink="http://www.w3.org/1999/xlink">
    <!-- Generator: sketchtool 39.1 (31720) - http://www.bohemiancoding.com/sketch -->
    <title>679A255E-5800-45F2-92BD-74EE7AF5D662</title>
    <desc>Created with sketchtool.</desc>
    <defs></defs>
    <g id="3.0" stroke="none" stroke-width="1" fill="none" fill-rule="evenodd">
        <g id="iphone-5-copy-22" transform="translate(-41.000000, -4323.000000)" fill="#FFFFFF">
            <g id="Group-5" transform="translate(41.000000, 4322.000000)">
                <g id="Group-6">
                    <g id="Group-9">
                        <g id="Group-12" transform="translate(0.000000, 1.000000)">
                            <path d="M17.5,1.65631907 C16.8537497,1.93972324 16.1627071,2.12865515 15.43967,2.21052481 C16.1819038,1.77597762 16.7513737,1.08321888 17.0201082,0.258211568 C16.3226731,0.661267997 15.5548438,0.957262168 14.735836,1.11470963 C14.0831804,0.42824903 13.1489925,0 12.1188339,0 C10.1352842,0 8.5292504,1.58074756 8.5292504,3.5330608 C8.5292504,3.81016682 8.56124489,4.08097469 8.62522747,4.33917995 C5.63711164,4.18803694 2.99451583,2.783625 1.22212088,0.648671696 C0.91499041,1.17139298 0.735831502,1.77597762 0.735831502,2.42464932 C0.735831502,3.65271936 1.36928722,4.72964638 2.33546644,5.36572178 C1.74680045,5.34682733 1.19652657,5.18938616 0.71023783,4.92487645 L0.71023783,4.9689635 C0.71023783,6.68195962 1.94515541,8.1052635 3.58957943,8.43274842 C3.2888485,8.51461997 2.96892151,8.5587045 2.64259627,8.5587045 C2.41224874,8.5587045 2.1883001,8.53351379 1.96435083,8.49572678 C2.41864699,9.90013557 3.74954293,10.920378 5.31718529,10.9518668 C4.08866533,11.8965365 2.54021966,12.4633379 0.857404167,12.4633379 C0.569469879,12.4633379 0.281535654,12.4444447 0,12.4129559 C1.5868376,13.4143051 3.47440631,14 5.50274246,14 C12.1060361,14 15.7148098,8.61538407 15.7148098,3.94871983 C15.7148098,3.79757052 15.7084109,3.64012306 15.702012,3.48898004 C16.4122513,2.98515321 17.0201082,2.36167412 17.5,1.65631907 L17.5,1.65631907 Z" id="Fill-1"></path>
                        </g>
                    </g>
                </g>
            </g>
        </g>
    </g>
</svg>